# AST/ASF file generated using VICON BodyLanguage
# -----------------------------------------------
:version 1.10
:name VICON
:units
  mass 1.0
  length 0.45
  angle deg
:documentation
   .ast/.asf automatically generated from VICON data using
   VICON BodyBuilder and BodyLanguage model FoxedUp or BRILLIANT.MOD
:root
   order TX TY TZ RX RY RZ
   axis XYZ
   position 0 0 0  
   orientation 0 0 0 
:bonedata
  begin
     id 1 
     name lhipjoint
     direction 0.729592 -0.560644 0.39163 
     length 2.81907 
     axis 0 0 0  XYZ
  end
  begin
     id 2 
     name lfemur
     direction 0.34202 -0.939693 0  
     length 5.92797  
     axis 0 0 20  XYZ
    dof rx ry rz
    limits (-160.0 20.0)
           (-70.0 70.0)
           (-60.0 70.0)
  end
  begin
     id 3 
     name ltibia
     direction 0.34202 -0.939693 0   
     length 7.88118   
     axis 0 0 20   XYZ
    dof rx
    limits (-10.0 170.0)
  end
  begin
     id 4 
     name lfoot
     direction 0.0476411 -0.130893 0.990251   
     length 1.97348   
     axis -90 7.62852e-016 20   XYZ
    dof rx rz
    limits (-45.0 90.0)
           (-70.0 20.0)
  end
  begin
     id 5 
     name ltoes
     direction 1.53635e-011 -4.21786e-011 1   
     length 0.999366   
     axis -90 7.62852e-016 20   XYZ
    dof rx
    limits (-90.0 20.0)
  end
  begin
     id 6 
     name rhipjoint
     direction -0.702143 -0.583724 0.407752   
     length 2.70761  
     axis 0 0 0  XYZ 
  end
  begin
     id 7 
     name rfemur
     direction -0.34202 -0.939693 0   
     length 5.98021   
     axis 0 0 -20   XYZ
    dof rx ry rz
    limits (-160.0 20.0)
           (-70.0 70.0)
           (-70.0 60.0)
  end
  begin
     id 8 
     name rtibia
     direction -0.34202 -0.939693 0   
     length 7.66627   
     axis 0 0 -20   XYZ
    dof rx
    limits (-10.0 170.0)
 end
 begin
     id 9 
     name rfoot
     direction -0.0516088 -0.141794 0.98855   
     length 2.01387  
     axis -90 -7.62852e-016 -20   XYZ
    dof rx rz
    limits (-45.0 90.0)
           (-20.0 70.0)
  end
  begin
     id 10 
     name rtoes
     direction -1.53568e-011 -4.21939e-011 1   
     length 1.01862   
     axis -90 -7.62852e-016 -20   XYZ
    dof rx
    limits (-90.0 20.0)
  end
  begin
     id 11 
     name lowerback
     direction -0.0436953 0.98817 -0.147007   
     length 1.83615   
     axis 0 0 0   XYZ
    dof rx ry rz
    limits (-20.0 45.0)
           (-30.0 30.0)
           (-30.0 30.0)
  end
  begin
     id 12 
     name upperback
     direction 0.0239184 0.998197 0.0550483   
     length 1.80285   
     axis 0 0 0   XYZ
    dof rx ry rz
    limits (-20.0 45.0)
           (-30.0 30.0)
           (-30.0 30.0)
  end
  begin
     id 13 
     name thorax
     direction 0.0460768 0.990713 0.127927   
     length 1.87059   
     axis 0 0 0   XYZ
    dof rx ry rz
    limits (-20.0 45.0)
           (-30.0 30.0)
           (-30.0 30.0)
  end
  begin
     id 14 
     name lowerneck
     direction -0.0234223 0.997727 0.0631897   
     length 1.79511   
     axis 0 0 0   XYZ
    dof rx ry rz
    limits (-20.0 45.0)
           (-30.0 30.0)
           (-30.0 30.0)
  end
  begin
     id 15 
     name upperneck
     direction 0.0345303 0.984409 -0.172474   
     length 1.80359   
     axis 0 0 0   XYZ
    dof rx ry rz
    limits (-20.0 45.0)
           (-30.0 30.0)
           (-30.0 30.0)
  end
  begin
     id 16
     name head
     direction 0.00973222 0.9978 -0.0655778  
     length 1.81938  
     axis 0 0 0   XYZ
    dof rx ry rz
    limits (-20.0 45.0)
           (-30.0 30.0)
           (-30.0 30.0)
  end
  begin
     id 17 
     name lclavicle
     direction 0.971201 0.212597 -0.10757  
     length 3.74698  
     axis 0 0 0   XYZ
    dof ry rz
    limits (-20.0 10.0)
           (0.0 20.0)
  end
  begin
     id 18 
     name lhumerus
     direction 1 -4.4896e-011 1.42684e-027   
     length 4.83799   
     axis 180 -30 -90   XYZ
    dof rx ry rz
    limits (-60.0 90.0)
           (-90.0 90.0)
           (-90.0 90.0)
  end
  begin
     id 19
     name lradius
     direction 1 -4.48978e-011 1.53407e-026   
     length 2.68259   
     axis 180 -30 -90   XYZ
    dof rx
    limits (-10.0 170.0)
  end
  begin
     id 20
     name lwrist
     direction 1 -4.48982e-011 3.34345e-026   
     length 1.34129   
     axis -2.22354e-014 90 90   XYZ
    dof ry
    limits (-180.0 0.0)
 end
  begin
     id 21 
     name lhand
     direction 1 -4.48992e-011 6.6869e-026   
     length 0.724765   
     axis -4.26681e-014 90 90   XYZ
    dof rx rz
    limits (-90.0 90.0)
           (-45.0 45.0)
  end
  begin
     id 22 
     name lfingers
     direction 1 -4.48965e-011 1.33738e-025   
     length 0.584325   
     axis -8.53362e-014 90 90   XYZ
    dof rx
    limits (0.0 90.0)
  end
  begin
     id 23
     name lthumb
     direction 0.707107 -6.34915e-011 0.707107   
     length 0.838977   
     axis -90 45 2.85299e-015   XYZ
    dof rx rz
    limits (-45.0 45.0)
           (-45.0 45.0)
  end
  begin
     id 24 
     name rclavicle
     direction -0.987829 0.146084 -0.0534135   
     length 3.83678  
     axis 0 0 0   XYZ 
    dof ry rz
    limits (-10.0 20.0)
           (-20.0 0.0)
  end
  begin
     id 25 
     name rhumerus
     direction -1 -4.48963e-011 -3.4086e-018  
     length 4.61639   
     axis 180 30 90   XYZ
    dof rx ry rz
    limits (-90.0 60.0)
           (-90.0 90.0)
           (-90.0 90.0)
  end
  begin
     id 26 
     name rradius
     direction -1 -4.48983e-011 1.36226e-026   
     length 2.86915   
     axis 180 30 90   XYZ
    dof rx
    limits (-10.0 170.0)
  end
  begin
     id 27 
     name rwrist
     direction -1 -4.48927e-011 3.34345e-026   
     length 1.43458   
     axis -2.22354e-014 -90 -90   XYZ
    dof ry
    limits (-180.0 0.0)
  end
  begin
     id 28
     name rhand
     direction -1 -4.49071e-011 6.6869e-026   
     length 0.726007   
     axis -4.26681e-014 -90 -90   XYZ
    dof rx rz
    limits (-90.0 90.0)
           (-45.0 45.0)
  end
  begin
     id 29
     name rfingers
     direction -1 -4.48886e-011 1.33738e-025   
     length 0.585326   
     axis -8.53362e-014 -90 -90   XYZ
    dof rx
    limits (0.0 90.0)
  end
  begin
     id 30
     name rthumb
     direction -0.707107 -6.34932e-011 0.707107   
     length 0.840414   
     axis -90 -45 -2.85299e-015   XYZ
    dof rx rz
    limits (-45.0 45.0)
           (-45.0 45.0)
  end
:hierarchy
  begin
    root lhipjoint rhipjoint lowerback
    lhipjoint lfemur
    lfemur ltibia
    ltibia lfoot
    lfoot ltoes
    rhipjoint rfemur
    rfemur rtibia
    rtibia rfoot
    rfoot rtoes
    lowerback upperback
    upperback thorax
    thorax lowerneck lclavicle rclavicle
    lowerneck upperneck
    upperneck head
    lclavicle lhumerus
    lhumerus lradius
    lradius lwrist
    lwrist lhand lthumb
    lhand lfingers
    rclavicle rhumerus
    rhumerus rradius
    rradius rwrist
    rwrist rhand rthumb
    rhand rfingers
  end

#!OML:ASF F:\VICON\USERDATA\INSTALL\rory3\rory3.ASF
:FULLY-SPECIFIED
:DEGREES
256
root -1.88503 15.9416 2.63285 0.996395 2.59538 4.9328
lowerback 11.7945 -0.577952 -8.91583
upperback -4.63446 -2.12608 1.26036
thorax -11.4053 -0.292254 6.88792
lowerneck -11.4907 -5.10687 -4.56848
upperneck 19.9964 -6.82281 2.98517
head 8.36639 -3.28725 1.02143
rclavicle 2.56929e-014 6.36111e-015
rhumerus -44.4799 -3.52495 -82.9807
rradius 18.5469
rwrist 14.2664
rhand -8.7078 22.8592
rfingers 7.12502
rthumb 17.2277 -6.39713
lclavicle 2.56929e-014 6.36111e-015
lhumerus -33.5208 0.682259 90.0573
lradius 24.7256
lwrist 0.483912
lhand -4.85232 20.2519
lfingers 7.12502
lthumb 20.9353 49.1421
rfemur -29.5845 15.5488 14.6196
rtibia 32.6415
rfoot -6.56989 -11.127
rtoes 36.0351
lfemur 15.8432 -2.26916 -27.5232
ltibia 24.3547
lfoot -1.78558 -5.79821
ltoes 6.12359
257
root -1.91458 15.9476 2.78584 0.863411 2.75864 4.78405
lowerback 11.965 -0.560426 -8.81727
upperback -4.6509 -2.10565 1.24156
thorax -11.5328 -0.282465 6.81479
lowerneck -11.2868 -5.05274 -4.5444
upperneck 19.8971 -6.79221 3.14659
head 8.29941 -3.25841 1.08062
rclavicle -4.22417e-014 2.0276e-014
rhumerus -44.4187 -3.86965 -82.8276
rradius 18.4303
rwrist 14.5756
rhand -8.44008 22.448
rfingers 7.12502
rthumb 17.4854 -6.78565
lclavicle -4.22417e-014 2.0276e-014
lhumerus -33.9759 0.867948 89.7814
lradius 24.6369
lwrist 0.422436
lhand -4.53309 20.1299
lfingers 7.12502
lthumb 21.242 48.9859
rfemur -28.9299 15.6501 15.165
rtibia 32.9405
rfoot -6.74427 -11.2295
rtoes 35.1834
lfemur 14.3442 -1.55082 -26.6509
ltibia 27.3834
lfoot 0.52808 -6.52117
ltoes 8.53286
258
root -1.94145 15.9595 2.94054 0.794529 2.91275 4.64627
lowerback 11.9427 -0.591478 -8.69352
upperback -4.63994 -2.12475 1.23256
thorax -11.5053 -0.303346 6.73655
lowerneck -10.9381 -5.03404 -4.63535
upperneck 19.5362 -6.81866 3.47251
head 8.13139 -3.25303 1.21187
rclavicle 1.58779e-014 -2.74323e-014
rhumerus -44.176 -4.16608 -82.7027
rradius 18.2189
rwrist 14.8845
rhand -7.81261 21.8249
rfingers 7.12502
rthumb 18.0891 -7.35392
lclavicle 1.58779e-014 -2.74323e-014
lhumerus -34.3626 1.14778 89.4554
lradius 24.4545
lwrist 0.115076
lhand -4.21797 20.0624
lfingers 7.12502
lthumb 21.5446 48.8841
rfemur -28.1824 15.5605 15.7025
rtibia 32.99
rfoot -6.84556 -11.3012
rtoes 34.4464
lfemur 12.6455 -1.04096 -25.8948
ltibia 30.6031
lfoot 2.45248 -7.23419
ltoes 8.4606
259
root -1.96938 15.981 3.09305 0.760889 3.01861 4.22289
lowerback 11.9395 -0.621839 -8.35328
upperback -4.62244 -2.09608 1.33498
thorax -11.4903 -0.311857 6.65004
lowerneck -11.1988 -5.0585 -4.64258
upperneck 19.7128 -6.86894 3.57326
head 8.24394 -3.26256 1.23309
rclavicle -7.20594e-016 2.22639e-014
rhumerus -43.8742 -4.23142 -82.6935
rradius 18.1217
rwrist 14.9057
rhand -7.07742 20.6979
rfingers 7.12502
rthumb 18.7964 -8.414
lclavicle -7.20594e-016 2.22639e-014
lhumerus -34.6693 1.27274 89.2825
lradius 24.2565
lwrist 0.0250556
lhand -4.26315 20.2794
lfingers 7.12502
lthumb 21.5012 49.1061
rfemur -27.3948 15.6107 16.5226
rtibia 32.8916
rfoot -7.11423 -11.4237
rtoes 34.1176
lfemur 10.7718 -0.576243 -24.8582
ltibia 33.8629
lfoot 4.36983 -8.01141
ltoes 7.86713
260
root -1.99797 15.9987 3.2398 0.742493 3.19067 3.65611
lowerback 12.062 -0.673129 -7.9246
upperback -4.65398 -2.08575 1.51162
thorax -11.6031 -0.32333 6.60683
lowerneck -11.6976 -5.14045 -4.57089
upperneck 20.2537 -6.95827 3.38506
head 8.51141 -3.30699 1.13227
rclavicle -2.01766e-014 2.50469e-014
rhumerus -43.7228 -4.17651 -82.6624
rradius 18.2044
rwrist 15.0535
rhand -6.54748 19.7843
rfingers 7.12502
rthumb 19.306 -9.27736
lclavicle -2.01766e-014 2.50469e-014
lhumerus -34.964 1.55586 89.0892
lradius 24.0805
lwrist -0.181041
lhand -4.30963 20.3442
lfingers 7.12502
lthumb 21.4566 49.1759
rfemur -26.5744 15.6809 17.4778
rtibia 32.6626
rfoot -7.54826 -11.492
rtoes 34.0661
lfemur 8.83766 -0.234853 -23.7004
ltibia 37.1206
lfoot 6.40947 -8.65806
ltoes 7.93021
261
root -2.02221 16.0123 3.38822 0.726587 3.40117 3.28565
lowerback 12.0314 -0.702223 -7.5873
upperback -4.63071 -2.05703 1.57635
thorax -11.5665 -0.33488 6.47801
lowerneck -11.6273 -5.23324 -4.59482
upperneck 20.2446 -7.09605 3.43466
head 8.50442 -3.36983 1.13871
rclavicle 1.0635e-014 -1.11319e-014
rhumerus -43.4855 -4.34148 -82.6179
rradius 18.2663
rwrist 15.0825
rhand -6.83198 19.979
rfingers 7.12502
rthumb 19.0324 -9.10982
lclavicle 1.0635e-014 -1.11319e-014
lhumerus -35.1874 1.77395 88.8553
lradius 23.9498
lwrist -0.604258
lhand -4.12066 20.3398
lfingers 7.12502
lthumb 21.6381 49.1507
rfemur -25.7105 15.4444 18.2135
rtibia 32.3827
rfoot -8.00414 -11.2387
rtoes 34.5151
lfemur 7.03434 -0.0619342 -22.8461
ltibia 40.2905
lfoot 8.8747 -8.99754
ltoes 9.97448
262
root -2.04202 16.0298 3.5372 0.781158 3.49021 3.0074
lowerback 11.8616 -0.69449 -7.30725
upperback -4.56971 -1.9808 1.60138
thorax -11.4113 -0.328712 6.32027
lowerneck -11.4371 -5.26876 -4.72162
upperneck 19.9735 -7.19161 3.78173
head 8.40076 -3.39463 1.27089
rclavicle 9.39258e-015 -1.19271e-015
rhumerus -43.1049 -4.62659 -82.52
rradius 18.2373
rwrist 15.206
rhand -7.81876 21.1301
rfingers 7.12502
rthumb 18.0832 -8.04924
lclavicle 9.39258e-015 -1.19271e-015
lhumerus -35.3326 1.73493 88.7255
lradius 23.8273
lwrist -0.774189
lhand -3.90324 20.4995
lfingers 7.12502
lthumb 21.8469 49.2863
rfemur -24.9292 15.1513 18.8238
rtibia 32.1152
rfoot -8.24272 -10.9217
rtoes 34.4496
lfemur 5.22105 0.132654 -22.1978
ltibia 43.3374
lfoot 11.6881 -9.08947
ltoes 12.0274
263
root -2.06045 16.0462 3.68049 0.839582 3.6623 2.77264
lowerback 11.8396 -0.713916 -7.07068
upperback -4.60503 -1.96353 1.63304
thorax -11.4441 -0.333985 6.2169
lowerneck -11.321 -5.32133 -4.81296
upperneck 19.8706 -7.29548 4.0057
head 8.36218 -3.43104 1.35209
rclavicle 1.68967e-015 3.18055e-015
rhumerus -42.892 -4.47179 -82.623
rradius 18.3294
rwrist 14.8616
rhand -8.25354 21.7178
rfingers 7.12502
rthumb 17.6649 -7.49972
lclavicle 1.68967e-015 3.18055e-015
lhumerus -35.5437 1.64576 88.6561
lradius 23.5386
lwrist -0.637439
lhand -3.91258 20.5774
lfingers 7.12502
lthumb 21.8379 49.3652
rfemur -24.176 14.8833 19.3546
rtibia 31.8181
rfoot -8.442 -10.8055
rtoes 33.8145
lfemur 3.37528 0.209006 -21.6544
ltibia 46.2666
lfoot 14.7824 -8.76805
ltoes 13.9188
264
root -2.08398 16.0597 3.82066 0.850256 4.0027 2.48513
lowerback 11.8677 -0.802521 -6.84714
upperback -4.64141 -2.04165 1.69839
thorax -11.4917 -0.381439 6.18023
lowerneck -11.255 -5.30898 -4.69884
upperneck 19.789 -7.29217 3.97034
head 8.31658 -3.42624 1.32444
rclavicle 1.23992e-014 -3.97569e-016
rhumerus -42.639 -4.37403 -82.6819
rradius 18.426
rwrist 14.6628
rhand -8.09836 21.4759
rfingers 7.12502
rthumb 17.8142 -7.72818
lclavicle 1.23992e-014 -3.97569e-016
lhumerus -35.799 1.89154 88.4002
lradius 23.2044
lwrist -1.01888
lhand -3.78329 20.2101
lfingers 7.12502
lthumb 21.962 48.9834
rfemur -23.3271 14.6634 19.9599
rtibia 31.4341
rfoot -8.65068 -10.8965
rtoes 33.1001
lfemur 1.49826 0.182812 -20.993
ltibia 49.113
lfoot 18.5255 -7.9584
ltoes 16.1646
265
root -2.10882 16.0741 3.95686 0.832512 4.21644 2.05299
lowerback 11.9286 -0.853515 -6.58259
upperback -4.65253 -2.05356 1.85532
thorax -11.5391 -0.396804 6.2092
lowerneck -11.3604 -5.29259 -4.60325
upperneck 19.8934 -7.26104 3.84315
head 8.36063 -3.41422 1.26676
rclavicle 8.49804e-015 8.34896e-015
rhumerus -42.229 -4.31523 -82.6449
rradius 18.4166
rwrist 14.585
rhand -7.97912 21.317
rfingers 7.12502
rthumb 17.9289 -7.87658
lclavicle 8.49804e-015 8.34896e-015
lhumerus -35.9617 2.30578 88.1257
lradius 22.7957
lwrist -1.62761
lhand -3.62689 19.6614
lfingers 7.12502
lthumb 22.1122 48.417
rfemur -22.4571 14.5514 20.7347
rtibia 30.9496
rfoot -8.67308 -11.0682
rtoes 31.7444
lfemur -0.44575 0.292834 -20.1684
ltibia 51.9166
lfoot 21.8484 -7.56378
ltoes 15.4347
266
root -2.12686 16.0954 4.09465 0.889676 4.37282 1.81385
lowerback 11.9056 -0.851782 -6.45401
upperback -4.68302 -2.01809 1.95495
thorax -11.565 -0.382757 6.23926
lowerneck -11.3367 -5.35585 -4.57465
upperneck 19.9812 -7.33722 3.74029
head 8.38429 -3.45775 1.21928
rclavicle 4.76586e-014 -1.43125e-014
rhumerus -41.8491 -4.05534 -82.6914
rradius 18.3692
rwrist 14.1962
rhand -8.11403 21.6471
rfingers 7.12502
rthumb 17.7991 -7.55833
lclavicle 4.76586e-014 -1.43125e-014
lhumerus -36.078 2.29951 88.1481
lradius 22.4161
lwrist -1.70266
lhand -3.80251 19.6501
lfingers 7.12502
lthumb 21.9436 48.4255
rfemur -21.6099 14.2571 21.2644
rtibia 30.3822
rfoot -8.72252 -11.0172
rtoes 31.0864
lfemur -2.49927 0.40123 -19.6753
ltibia 54.6163
lfoot 24.1383 -8.03838
ltoes 16.187
